# xmcd CD database file
#
# Track frame offsets:
#	150
#	14104
#	29573
#	48318
#	59665
#	74187
#	93826
#	107033
#	125867
#	139245
#	157134
#	176452
#	190878
#
# Disc length: 2680 seconds
#
# Revision: 0
# Processed by: cddbd v1.5.2PL0 Copyright (c) Steve Scherf et al.
# Submitted via: CDex 1.79
#
DISCID=cd0a760d
DTITLE=Billy Dee and Johnny Paycheck - Billy Dee Live At Gilly's With Johnny Paycheck
DYEAR=1900
DGENRE=Country
TTITLE0=Friend, Lover, Wife
TTITLE1=You Don't Have Very Far To Go
TTITLE2=Reasons To Quit
TTITLE3=Slide Off Your Satin Sheets
TTITLE4=Colorado Cool-Aide
TTITLE5=I Am What I Am
TTITLE6=She's All I Got
TTITLE7=I Never Got Over You
TTITLE8=Rollin' In My Sweet Baby's Arms
TTITLE9=(Stay Away From) The Cocaine Train
TTITLE10=In Memory Of A Memory
TTITLE11=I'm The Only Hell (Mama Ever Raised)
TTITLE12=Take This Job and Shove It
EXTD=
EXTT0=
EXTT1=
EXTT2=
EXTT3=
EXTT4=
EXTT5=
EXTT6=
EXTT7=
EXTT8=
EXTT9=
EXTT10=
EXTT11=
EXTT12=
PLAYORDER=
